<?xml version="1.0" standalone="no"?>
<!DOCTYPE svg PUBLIC "-//W3C//DTD SVG 20010904//EN"
 "http://www.w3.org/TR/2001/REC-SVG-20010904/DTD/svg10.dtd">
<svg version="1.0" xmlns="http://www.w3.org/2000/svg"
 width="408.000000pt" height="405.000000pt" viewBox="0 0 408.000000 405.000000"
 preserveAspectRatio="xMidYMid meet">

<g transform="translate(0.000000,405.000000) scale(0.100000,-0.100000)"
fill="#000000" stroke="none">
<path d="M1930 3604 c-155 -30 -308 -126 -395 -248 -84 -118 -87 -129 -85
-364 0 -114 -2 -222 -6 -239 -6 -30 -10 -33 -41 -33 -19 0 -43 5 -53 10 -16 9
-18 8 -14 -5 6 -15 41 -28 78 -29 10 -1 41 -32 75 -76 89 -118 211 -205 344
-244 79 -24 48 2 -38 32 -44 16 -107 47 -140 69 -66 45 -158 134 -153 149 4
12 -34 74 -42 69 -4 -3 -3 17 2 43 5 26 8 140 7 253 l-2 206 39 74 c159 302
549 410 850 234 66 -39 156 -126 205 -198 48 -73 51 -65 5 12 -41 68 -142 166
-210 206 -96 56 -172 77 -291 80 -60 2 -121 1 -135 -1z"/>
<path d="M2621 3304 c42 -85 60 -109 35 -49 -18 42 -64 125 -70 125 -2 0 14
-34 35 -76z"/>
<path d="M2464 3189 c32 -56 66 -186 66 -248 -1 -171 -108 -349 -259 -430 -68
-36 -175 -66 -199 -55 -9 4 -58 10 -107 14 -73 4 -102 11 -150 35 -73 37 -173
133 -208 200 -14 28 -26 46 -27 41 0 -4 14 -35 32 -68 39 -73 127 -156 209
-197 52 -26 74 -31 134 -31 40 0 86 -5 103 -11 40 -14 117 2 198 40 199 95
320 319 284 528 -11 70 -52 169 -85 208 -9 11 -5 -1 9 -26z"/>
<path d="M2748 2978 c2 -224 -3 -251 -50 -256 -15 -2 -36 2 -47 8 -17 8 -19 8
-15 -4 3 -8 18 -19 34 -24 34 -12 69 3 87 38 18 35 18 399 1 423 -11 14 -13
-21 -10 -185z"/>
<path d="M2078 2363 c-6 -52 -103 -71 -165 -33 -18 11 -33 15 -33 10 0 -6 15
-19 33 -31 25 -16 44 -19 89 -16 64 4 98 26 98 63 0 33 -18 39 -22 7z"/>
<path d="M1840 2336 c0 -2 7 -9 15 -16 13 -11 14 -10 9 4 -5 14 -24 23 -24 12z"/>
<path d="M2750 2176 c0 -2 8 -10 18 -17 15 -13 16 -12 3 4 -13 16 -21 21 -21
13z"/>
<path d="M2797 2115 c73 -106 113 -247 113 -397 l0 -98 -170 0 c-107 0 -170
-4 -170 -10 0 -6 67 -10 180 -10 l180 0 0 108 c0 73 -7 132 -20 185 -21 85
-79 204 -113 234 l-21 18 21 -30z"/>
<path d="M1518 1899 c-16 -9 -18 -27 -18 -144 l0 -135 -164 0 c-99 0 -167 -4
-171 -10 -4 -7 57 -10 174 -10 l181 0 0 139 c0 145 4 159 43 139 19 -10 23 2
5 20 -14 14 -27 15 -50 1z"/>
<path d="M2509 1893 c-10 -11 -15 -54 -17 -145 l-4 -128 -459 0 c-299 0 -459
-3 -459 -10 0 -7 163 -10 469 -10 453 0 470 1 476 19 3 10 4 69 1 129 -4 82
-1 115 9 128 11 15 15 16 29 5 13 -11 16 -11 16 2 0 13 -20 27 -40 27 -4 0
-14 -7 -21 -17z"/>
<path d="M63 973 c3 -342 6 -406 21 -458 63 -215 206 -352 431 -412 67 -17
143 -18 1535 -18 l1465 0 79 23 c114 33 182 69 253 136 72 66 111 138 145 261
20 74 22 107 26 473 l4 392 -64 0 -63 0 -1 -32 c0 -18 -6 -69 -13 -113 -7 -44
-14 -91 -15 -105 -3 -30 -16 -115 -22 -150 -3 -14 -9 -47 -14 -75 -11 -66 -39
-148 -54 -157 -6 -4 -8 -8 -3 -8 10 0 -18 -56 -50 -98 -13 -18 -29 -29 -35
-26 -6 4 -8 3 -5 -3 17 -27 -151 -130 -239 -148 -52 -10 -277 -27 -349 -26 -5
0 -280 1 -610 1 -638 1 -864 1 -880 2 -5 1 -21 -2 -35 -6 -21 -6 -22 -5 -7 4
9 6 17 16 17 23 0 8 -4 7 -10 -3 -7 -12 -45 -14 -208 -15 -110 0 -199 -2 -197
-5 2 -3 -35 -5 -81 -5 -46 0 -84 2 -84 5 0 3 -64 6 -143 8 -155 3 -227 10
-227 22 0 4 -6 7 -12 7 -23 -2 -98 24 -98 33 0 6 -5 10 -10 10 -6 0 -34 16
-63 35 -28 19 -48 35 -44 35 4 0 -8 14 -28 31 -83 74 -147 240 -169 444 -3 28
-10 77 -16 110 -5 33 -13 85 -16 115 -3 30 -8 59 -11 63 -3 5 1 13 8 18 9 5
-9 9 -49 9 l-63 0 4 -397z"/>
<path d="M1384 1079 c-14 -23 -75 -327 -79 -394 -2 -38 -1 -56 1 -40 6 35 58
296 74 373 11 47 14 52 38 52 15 0 34 5 42 10 11 7 4 10 -27 10 -23 0 -45 -5
-49 -11z"/>
<path d="M3301 1038 c-6 -29 -24 -132 -41 -228 -16 -96 -33 -186 -36 -200 -4
-17 -2 -22 5 -15 6 6 26 103 46 215 49 284 42 260 75 260 16 0 32 5 35 10 4 6
-10 10 -34 10 l-40 0 -10 -52z"/>
<path d="M2204 1072 c-13 -8 -104 -482 -93 -482 9 0 9 3 55 253 36 199 39 209
63 219 40 15 149 2 206 -26 l50 -25 -28 24 c-15 13 -44 29 -65 34 -42 12 -171
14 -188 3z"/>
<path d="M536 1053 c-13 -46 -86 -456 -82 -461 9 -8 13 12 46 198 52 287 45
268 88 273 l37 4 -42 1 c-32 2 -43 -2 -47 -15z"/>
<path d="M817 1057 c-3 -8 -11 -48 -18 -90 l-13 -77 -88 0 c-52 0 -88 -4 -88
-10 0 -12 159 -14 176 -2 6 4 17 39 23 77 19 105 18 103 59 108 l37 4 -41 1
c-27 1 -44 -3 -47 -11z"/>
<path d="M3426 895 c-37 -36 -64 -65 -58 -65 6 0 38 25 70 55 62 57 78 64 102
43 8 -7 6 -3 -4 10 -11 12 -24 22 -30 22 -6 -1 -42 -30 -80 -65z"/>
<path d="M1044 931 c-81 -37 -125 -108 -123 -198 l2 -58 8 62 c11 90 48 147
119 184 32 16 138 16 170 0 24 -13 24 -13 8 5 -27 27 -131 30 -184 5z"/>
<path d="M1570 941 c-21 -6 -24 -12 -22 -39 3 -25 -44 -298 -74 -432 -4 -17
-2 -22 5 -15 12 12 69 304 79 405 6 60 9 65 32 68 31 4 52 22 25 21 -11 -1
-31 -4 -45 -8z"/>
<path d="M1668 938 c-16 -5 -28 -14 -28 -20 0 -6 8 -7 18 -3 55 23 89 26 132
11 54 -19 67 -12 17 9 -41 17 -98 18 -139 3z"/>
<path d="M2661 929 c-78 -40 -130 -145 -112 -229 6 -31 8 -26 13 37 7 89 37
142 101 175 49 25 147 30 187 9 24 -13 24 -13 7 5 -28 30 -140 31 -196 3z"/>
<path d="M3010 931 c-41 -21 -73 -71 -67 -103 4 -24 6 -21 23 36 17 56 92 81
189 64 l40 -7 -30 14 c-43 20 -114 18 -155 -4z"/>
<path d="M2420 870 c-1 -115 -74 -200 -171 -200 -16 0 -29 -4 -29 -10 0 -28
105 3 148 43 50 46 83 149 63 197 -8 21 -10 17 -11 -30z"/>
<path d="M1159 827 c-13 -17 -27 -22 -68 -22 -28 0 -51 -3 -51 -7 0 -5 22 -8
49 -8 50 0 98 25 90 47 -2 6 -11 1 -20 -10z"/>
<path d="M2790 829 c-9 -12 -36 -22 -70 -28 l-55 -9 51 -1 c53 -1 101 23 93
46 -2 6 -11 3 -19 -8z"/>
<path d="M1773 783 c-4 -82 -44 -124 -119 -125 -24 -1 -41 -5 -38 -10 9 -14
73 -9 105 8 33 17 68 81 69 126 0 41 -15 41 -17 1z"/>
<path d="M3050 816 c0 -7 93 -57 97 -52 3 2 -15 16 -40 30 -42 25 -57 31 -57
22z"/>
<path d="M752 723 c-7 -43 -16 -91 -19 -108 -4 -20 -2 -27 4 -20 6 6 18 51 27
101 19 106 18 104 8 104 -4 0 -13 -35 -20 -77z"/>
<path d="M3070 687 c0 -10 -11 -22 -24 -28 -18 -9 -31 -7 -64 10 l-41 21 -21
-36 c-12 -19 -20 -37 -17 -40 3 -3 13 7 23 23 10 15 19 29 20 31 1 2 16 -4 33
-12 41 -22 74 -20 96 4 14 16 16 23 7 32 -9 9 -12 8 -12 -5z"/>
<path d="M1131 664 c-26 -12 -41 -13 -64 -4 -37 12 -47 6 -16 -10 28 -15 96
-7 118 14 19 19 7 19 -38 0z"/>
<path d="M2755 663 c-29 -10 -46 -11 -63 -4 -31 15 -37 14 -22 -4 16 -19 73
-19 110 0 17 9 30 18 30 20 0 7 -9 5 -55 -12z"/>
<path d="M1400 620 c0 -5 5 -10 11 -10 5 0 7 5 4 10 -3 6 -8 10 -11 10 -2 0
-4 -4 -4 -10z"/>
</g>
</svg>
